{
  "accessors": [
    {
      "bufferView": 2,
      "componentType": 5126,
      "count": 166,
      "max": [
        260.03399658203125,
        -159.1999969482422,
        -1.4353100061416626
      ],
      "min": [
        254.0989990234375,
        -167.6999969482422,
        -5.725510120391846
      ],
      "type": "VEC3"
    },
    {
      "bufferView": 2,
      "byteOffset": 1992,
      "componentType": 5126,
      "count": 166,
      "max": [
        1.0,
        1.0,
        1.0
      ],
      "min": [
        -1.0,
        -1.0,
        -1.0
      ],
      "type": "VEC3"
    },
    {
      "bufferView": 1,
      "componentType": 5126,
      "count": 166,
      "max": [
        0.8387129902839661,
        1.3273600339889526
      ],
      "min": [
        -0.19910000264644623,
        0.21063999831676483
      ],
      "type": "VEC2"
    },
    {
      "bufferView": 0,
      "componentType": 5125,
      "count": 216,
      "type": "SCALAR"
    },
    {
      "bufferView": 2,
      "byteOffset": 3984,
      "componentType": 5126,
      "count": 8,
      "max": [
        260.0539855957031,
        -162.6999969482422,
        -2.0353100299835205
      ],
      "min": [
        254.07899475097656,
        -167.1999969482422,
        -3.10971999168396
      ],
      "type": "VEC3"
    },
    {
      "bufferView": 2,
      "byteOffset": 4080,
      "componentType": 5126,
      "count": 8,
      "max": [
        1.0,
        0.0,
        -0.0
      ],
      "min": [
        -1.0,
        0.0,
        -0.0
      ],
      "type": "VEC3"
    },
    {
      "bufferView": 1,
      "byteOffset": 1328,
      "componentType": 5126,
      "count": 8,
      "max": [
        1.0,
        1.0
      ],
      "min": [
        0.0,
        0.0
      ],
      "type": "VEC2"
    },
    {
      "bufferView": 0,
      "byteOffset": 864,
      "componentType": 5125,
      "count": 12,
      "type": "SCALAR"
    },
    {
      "bufferView": 2,
      "byteOffset": 4176,
      "componentType": 5126,
      "count": 12,
      "max": [
        259.86700439453125,
        -165.5,
        -4.326940059661865
      ],
      "min": [
        254.22300720214844,
        -167.6999969482422,
        -5.72898006439209
      ],
      "type": "VEC3"
    },
    {
      "bufferView": 2,
      "byteOffset": 4320,
      "componentType": 5126,
      "count": 12,
      "max": [
        0.9848729372024536,
        4.517354312838506e-08,
        -0.1732281595468521
      ],
      "min": [
        -0.9848816990852356,
        -3.6990972063222216e-08,
        -0.17355528473854065
      ],
      "type": "VEC3"
    },
    {
      "bufferView": 1,
      "byteOffset": 1392,
      "componentType": 5126,
      "count": 12,
      "max": [
        1.0,
        1.0
      ],
      "min": [
        0.0,
        0.0
      ],
      "type": "VEC2"
    },
    {
      "bufferView": 0,
      "byteOffset": 912,
      "componentType": 5125,
      "count": 12,
      "type": "SCALAR"
    },
    {
      "bufferView": 2,
      "byteOffset": 4464,
      "componentType": 5126,
      "count": 8,
      "max": [
        260.0539855957031,
        -159.1999969482422,
        -1.4353100061416626
      ],
      "min": [
        254.07899475097656,
        -164.55799865722656,
        -2.10971999168396
      ],
      "type": "VEC3"
    },
    {
      "bufferView": 2,
      "byteOffset": 4560,
      "componentType": 5126,
      "count": 8,
      "max": [
        1.0,
        0.0,
        -0.0
      ],
      "min": [
        -1.0,
        0.0,
        -0.0
      ],
      "type": "VEC3"
    },
    {
      "bufferView": 1,
      "byteOffset": 1488,
      "componentType": 5126,
      "count": 8,
      "max": [
        1.0,
        1.0
      ],
      "min": [
        0.0,
        0.0
      ],
      "type": "VEC2"
    },
    {
      "bufferView": 0,
      "byteOffset": 960,
      "componentType": 5125,
      "count": 12,
      "type": "SCALAR"
    },
    {
      "bufferView": 2,
      "byteOffset": 4656,
      "componentType": 5126,
      "count": 12309,
      "max": [
        260.0329895019531,
        -154.63600158691406,
        -1.10971999168396
      ],
      "min": [
        254.10000610351563,
        -168.89999389648438,
        -6.527190208435059
      ],
      "type": "VEC3"
    },
    {
      "bufferView": 2,
      "byteOffset": 152364,
      "componentType": 5126,
      "count": 12309,
      "max": [
        0.9999691843986511,
        0.999845564365387,
        1.0
      ],
      "min": [
        -0.9999382495880127,
        -0.9999691843986511,
        -0.9999381899833679
      ],
      "type": "VEC3"
    },
    {
      "bufferView": 1,
      "byteOffset": 1552,
      "componentType": 5126,
      "count": 12309,
      "max": [
        0.8622999787330627,
        0.5022000074386597
      ],
      "min": [
        0.61080002784729,
        0.12939999997615814
      ],
      "type": "VEC2"
    },
    {
      "bufferView": 0,
      "byteOffset": 1008,
      "componentType": 5125,
      "count": 12309,
      "type": "SCALAR"
    },
    {
      "bufferView": 2,
      "byteOffset": 300072,
      "componentType": 5126,
      "count": 10518,
      "max": [
        260.218994140625,
        -154.4219970703125,
        -0.8153820037841797
      ],
      "min": [
        253.91400146484375,
        -169.19200134277344,
        -6.264599800109863
      ],
      "type": "VEC3"
    },
    {
      "bufferView": 2,
      "byteOffset": 426288,
      "componentType": 5126,
      "count": 10518,
      "max": [
        0.9999383687973022,
        0.9998455047607422,
        1.0
      ],
      "min": [
        -0.9999383091926575,
        -0.9999692440032959,
        -0.9999692440032959
      ],
      "type": "VEC3"
    },
    {
      "bufferView": 1,
      "byteOffset": 100024,
      "componentType": 5126,
      "count": 10518,
      "max": [
        10.078300476074219,
        -7.2280402183532715
      ],
      "min": [
        -1.2939399480819702,
        -11.93340015411377
      ],
      "type": "VEC2"
    },
    {
      "bufferView": 0,
      "byteOffset": 50244,
      "componentType": 5125,
      "count": 10518,
      "type": "SCALAR"
    },
    {
      "bufferView": 2,
      "byteOffset": 552504,
      "componentType": 5126,
      "count": 1662,
      "max": [
        259.218994140625,
        -168.87100219726563,
        -1.9990299940109253
      ],
      "min": [
        254.89199829101563,
        -168.9010009765625,
        -2.5153799057006836
      ],
      "type": "VEC3"
    },
    {
      "bufferView": 2,
      "byteOffset": 572448,
      "componentType": 5126,
      "count": 1662,
      "max": [
        1.0,
        1.0,
        1.0
      ],
      "min": [
        -1.0,
        -1.0,
        -1.0
      ],
      "type": "VEC3"
    },
    {
      "bufferView": 1,
      "byteOffset": 184168,
      "componentType": 5126,
      "count": 1662,
      "max": [
        0.11907000094652176,
        1.1282700300216675
      ],
      "min": [
        -0.04595290124416351,
        0.8345019817352295
      ],
      "type": "VEC2"
    },
    {
      "bufferView": 0,
      "byteOffset": 92316,
      "componentType": 5125,
      "count": 1728,
      "type": "SCALAR"
    },
    {
      "bufferView": 2,
      "byteOffset": 592392,
      "componentType": 5126,
      "count": 19390,
      "max": [
        260.0929870605469,
        -154.447998046875,
        -0.41959598660469055
      ],
      "min": [
        253.99400329589844,
        -169.0489959716797,
        -7.040299892425537
      ],
      "type": "VEC3"
    },
    {
      "bufferView": 2,
      "byteOffset": 825072,
      "componentType": 5126,
      "count": 19390,
      "max": [
        0.9999691247940063,
        0.9998459219932556,
        1.0
      ],
      "min": [
        -0.9999385476112366,
        -0.999969482421875,
        -0.9999690651893616
      ],
      "type": "VEC3"
    },
    {
      "bufferView": 1,
      "byteOffset": 197464,
      "componentType": 5126,
      "count": 19390,
      "max": [
        0.9940999746322632,
        0.9832000136375427
      ],
      "min": [
        0.0015999999595806003,
        0.10209999978542328
      ],
      "type": "VEC2"
    },
    {
      "bufferView": 0,
      "byteOffset": 99228,
      "componentType": 5125,
      "count": 19980,
      "type": "SCALAR"
    },
    {
      "bufferView": 2,
      "byteOffset": 1057752,
      "componentType": 5126,
      "count": 390,
      "max": [
        259.3169860839844,
        -155.1929931640625,
        -1.9906599521636963
      ],
      "min": [
        254.8159942626953,
        -168.88800048828125,
        -5.761499881744385
      ],
      "type": "VEC3"
    },
    {
      "bufferView": 2,
      "byteOffset": 1062432,
      "componentType": 5126,
      "count": 390,
      "max": [
        0.7183144092559814,
        0.9998458623886108,
        0.9988564848899841
      ],
      "min": [
        -0.7183016538619995,
        -0.9988552331924438,
        -0.6367699503898621
      ],
      "type": "VEC3"
    },
    {
      "bufferView": 1,
      "byteOffset": 352584,
      "componentType": 5126,
      "count": 390,
      "max": [
        -3.0815699100494385,
        -9.636300086975098
      ],
      "min": [
        -4.758920192718506,
        -10.429800033569336
      ],
      "type": "VEC2"
    },
    {
      "bufferView": 0,
      "byteOffset": 179148,
      "componentType": 5125,
      "count": 390,
      "type": "SCALAR"
    },
    {
      "bufferView": 2,
      "byteOffset": 1067112,
      "componentType": 5126,
      "count": 4379,
      "max": [
        260.0369873046875,
        -154.94400024414063,
        -0.7204859852790833
      ],
      "min": [
        254.01600646972656,
        -168.8800048828125,
        -6.09414005279541
      ],
      "type": "VEC3"
    },
    {
      "bufferView": 2,
      "byteOffset": 1119660,
      "componentType": 5126,
      "count": 4379,
      "max": [
        0.9999386668205261,
        0.9998453259468079,
        1.0
      ],
      "min": [
        -0.9999386668205261,
        -0.9999693632125854,
        -0.9999382495880127
      ],
      "type": "VEC3"
    },
    {
      "bufferView": 1,
      "byteOffset": 355704,
      "componentType": 5126,
      "count": 4379,
      "max": [
        4.049310207366943,
        3.0117099285125732
      ],
      "min": [
        2.327970027923584,
        1.2910200357437134
      ],
      "type": "VEC2"
    },
    {
      "bufferView": 0,
      "byteOffset": 180708,
      "componentType": 5125,
      "count": 4389,
      "type": "SCALAR"
    },
    {
      "bufferView": 2,
      "byteOffset": 1172208,
      "componentType": 5126,
      "count": 3528,
      "max": [
        259.9159851074219,
        -156.77200317382813,
        -1.1920899822825959e-07
      ],
      "min": [
        254.1719970703125,
        -167.177001953125,
        -2.148360013961792
      ],
      "type": "VEC3"
    },
    {
      "bufferView": 2,
      "byteOffset": 1214544,
      "componentType": 5126,
      "count": 3528,
      "max": [
        0.9999383687973022,
        0.9041452407836914,
        0.9041489362716675
      ],
      "min": [
        -0.99993896484375,
        -0.9041433930397034,
        -0.8989875316619873
      ],
      "type": "VEC3"
    },
    {
      "bufferView": 1,
      "byteOffset": 390736,
      "componentType": 5126,
      "count": 3528,
      "max": [
        0.9887999892234802,
        0.9896000027656555
      ],
      "min": [
        0.011599999852478504,
        0.004400010220706463
      ],
      "type": "VEC2"
    },
    {
      "bufferView": 0,
      "byteOffset": 198264,
      "componentType": 5125,
      "count": 3528,
      "type": "SCALAR"
    },
    {
      "bufferView": 2,
      "byteOffset": 1256880,
      "componentType": 5126,
      "count": 1350,
      "max": [
        259.8429870605469,
        -154.94200134277344,
        -2.26705002784729
      ],
      "min": [
        254.2899932861328,
        -168.6699981689453,
        -5.677989959716797
      ],
      "type": "VEC3"
    },
    {
      "bufferView": 2,
      "byteOffset": 1273080,
      "componentType": 5126,
      "count": 1350,
      "max": [
        0.9920054078102112,
        0.9993810057640076,
        0.9890647530555725
      ],
      "min": [
        -0.9920052886009216,
        -0.9832172989845276,
        -0.9983929991722107
      ],
      "type": "VEC3"
    },
    {
      "bufferView": 1,
      "byteOffset": 418960,
      "componentType": 5126,
      "count": 1350,
      "max": [
        -6.6067399978637695,
        -6.840439796447754
      ],
      "min": [
        -8.270759582519531,
        -7.8985700607299805
      ],
      "type": "VEC2"
    },
    {
      "bufferView": 0,
      "byteOffset": 212376,
      "componentType": 5125,
      "count": 1350,
      "type": "SCALAR"
    }
  ],
  "asset": {
    "extras": {
      "author": "𝙎𝙍𝙏 𝙋𝙚𝙧𝙛𝙤𝙢𝙖𝙣𝙘𝙚™ (https://sketchfab.com/TheRealSRT)",
      "license": "CC-BY-4.0 (http://creativecommons.org/licenses/by/4.0/)",
      "source": "https://sketchfab.com/3d-models/1950-volkswagen-van-custom-le-mans-car-3eaed81bb14f41bc95a8dd3249292647",
      "title": "1950 Volkswagen Van Custom Le Mans car"
    },
    "generator": "Sketchfab-14.14.0",
    "version": "2.0"
  },
  "bufferViews": [
    {
      "buffer": 0,
      "byteLength": 217776,
      "name": "floatBufferViews",
      "target": 34963
    },
    {
      "buffer": 0,
      "byteLength": 429760,
      "byteOffset": 217776,
      "byteStride": 8,
      "name": "floatBufferViews",
      "target": 34962
    },
    {
      "buffer": 0,
      "byteLength": 1289280,
      "byteOffset": 647536,
      "byteStride": 12,
      "name": "floatBufferViews",
      "target": 34962
    }
  ],
  "buffers": [
    {
      "byteLength": 1936816,
      "uri": "scene.bin"
    }
  ],
  "images": [
    {
      "uri": "textures/Part2Mtl_baseColor.png"
    },
    {
      "uri": "textures/Part4Mtl_baseColor.png"
    },
    {
      "uri": "textures/Part6Mtl_baseColor.png"
    },
    {
      "uri": "textures/Meshpart1Mtl.001_baseColor.png"
    },
    {
      "uri": "textures/Meshpart7Mtl.001_baseColor.png"
    }
  ],
  "materials": [
    {
      "alphaMode": "BLEND",
      "name": "Part1Mtl.001",
      "pbrMetallicRoughness": {
        "baseColorFactor": [
          0.8,
          0.8,
          0.8,
          0.0
        ],
        "metallicFactor": 0.0,
        "roughnessFactor": 0.5
      }
    },
    {
      "alphaMode": "BLEND",
      "doubleSided": true,
      "name": "Part2Mtl",
      "pbrMetallicRoughness": {
        "baseColorTexture": {
          "index": 0
        },
        "metallicFactor": 0.0,
        "roughnessFactor": 0.0
      }
    },
    {
      "alphaMode": "BLEND",
      "doubleSided": true,
      "name": "Part4Mtl",
      "pbrMetallicRoughness": {
        "baseColorTexture": {
          "index": 1
        },
        "metallicFactor": 0.0,
        "roughnessFactor": 0.0
      }
    },
    {
      "alphaMode": "BLEND",
      "doubleSided": true,
      "name": "Part6Mtl",
      "pbrMetallicRoughness": {
        "baseColorTexture": {
          "index": 2
        },
        "metallicFactor": 0.0,
        "roughnessFactor": 0.0
      }
    },
    {
      "doubleSided": true,
      "name": "Meshpart1Mtl.001",
      "pbrMetallicRoughness": {
        "baseColorTexture": {
          "index": 3
        },
        "metallicFactor": 0.0,
        "roughnessFactor": 0.0
      }
    },
    {
      "doubleSided": true,
      "name": "Meshpart2Mtl.001",
      "pbrMetallicRoughness": {
        "baseColorFactor": [
          0.373615,
          0.368591,
          0.383775,
          1.0
        ],
        "roughnessFactor": 0.0
      }
    },
    {
      "doubleSided": true,
      "name": "Part13Mtl",
      "pbrMetallicRoughness": {
        "baseColorFactor": [
          1.0,
          0.0,
          0.0,
          1.0
        ],
        "metallicFactor": 0.0
      }
    },
    {
      "doubleSided": true,
      "name": "Meshpart3Mtl.001",
      "pbrMetallicRoughness": {
        "baseColorTexture": {
          "index": 3
        },
        "metallicFactor": 0.0,
        "roughnessFactor": 0.0
      }
    },
    {
      "doubleSided": true,
      "name": "Meshpart4Mtl.001",
      "pbrMetallicRoughness": {
        "baseColorFactor": [
          0.940601,
          0.598942,
          0.151058,
          1.0
        ],
        "metallicFactor": 0.0
      }
    },
    {
      "doubleSided": true,
      "name": "Meshpart6Mtl.001",
      "pbrMetallicRoughness": {
        "baseColorFactor": [
          0.982826,
          0.827726,
          0.271577,
          1.0
        ],
        "metallicFactor": 0.0
      }
    },
    {
      "doubleSided": true,
      "name": "Meshpart7Mtl.001",
      "pbrMetallicRoughness": {
        "baseColorTexture": {
          "index": 4
        },
        "metallicFactor": 0.0
      }
    },
    {
      "alphaMode": "BLEND",
      "doubleSided": true,
      "name": "Meshpart16Mtl.001",
      "pbrMetallicRoughness": {
        "baseColorFactor": [
          0.0,
          0.0,
          0.0,
          0.6378016999926934
        ],
        "metallicFactor": 0.0,
        "roughnessFactor": 0.0
      }
    }
  ],
  "meshes": [
    {
      "name": "Object_0",
      "primitives": [
        {
          "attributes": {
            "NORMAL": 1,
            "POSITION": 0,
            "TEXCOORD_0": 2
          },
          "indices": 3,
          "material": 0,
          "mode": 4
        }
      ]
    },
    {
      "name": "Object_1",
      "primitives": [
        {
          "attributes": {
            "NORMAL": 5,
            "POSITION": 4,
            "TEXCOORD_0": 6
          },
          "indices": 7,
          "material": 1,
          "mode": 4
        }
      ]
    },
    {
      "name": "Object_2",
      "primitives": [
        {
          "attributes": {
            "NORMAL": 9,
            "POSITION": 8,
            "TEXCOORD_0": 10
          },
          "indices": 11,
          "material": 2,
          "mode": 4
        }
      ]
    },
    {
      "name": "Object_3",
      "primitives": [
        {
          "attributes": {
            "NORMAL": 13,
            "POSITION": 12,
            "TEXCOORD_0": 14
          },
          "indices": 15,
          "material": 3,
          "mode": 4
        }
      ]
    },
    {
      "name": "Object_4",
      "primitives": [
        {
          "attributes": {
            "NORMAL": 17,
            "POSITION": 16,
            "TEXCOORD_0": 18
          },
          "indices": 19,
          "material": 4,
          "mode": 4
        }
      ]
    },
    {
      "name": "Object_5",
      "primitives": [
        {
          "attributes": {
            "NORMAL": 21,
            "POSITION": 20,
            "TEXCOORD_0": 22
          },
          "indices": 23,
          "material": 5,
          "mode": 4
        }
      ]
    },
    {
      "name": "Object_6",
      "primitives": [
        {
          "attributes": {
            "NORMAL": 25,
            "POSITION": 24,
            "TEXCOORD_0": 26
          },
          "indices": 27,
          "material": 6,
          "mode": 4
        }
      ]
    },
    {
      "name": "Object_7",
      "primitives": [
        {
          "attributes": {
            "NORMAL": 29,
            "POSITION": 28,
            "TEXCOORD_0": 30
          },
          "indices": 31,
          "material": 7,
          "mode": 4
        }
      ]
    },
    {
      "name": "Object_8",
      "primitives": [
        {
          "attributes": {
            "NORMAL": 33,
            "POSITION": 32,
            "TEXCOORD_0": 34
          },
          "indices": 35,
          "material": 8,
          "mode": 4
        }
      ]
    },
    {
      "name": "Object_9",
      "primitives": [
        {
          "attributes": {
            "NORMAL": 37,
            "POSITION": 36,
            "TEXCOORD_0": 38
          },
          "indices": 39,
          "material": 9,
          "mode": 4
        }
      ]
    },
    {
      "name": "Object_10",
      "primitives": [
        {
          "attributes": {
            "NORMAL": 41,
            "POSITION": 40,
            "TEXCOORD_0": 42
          },
          "indices": 43,
          "material": 10,
          "mode": 4
        }
      ]
    },
    {
      "name": "Object_11",
      "primitives": [
        {
          "attributes": {
            "NORMAL": 45,
            "POSITION": 44,
            "TEXCOORD_0": 46
          },
          "indices": 47,
          "material": 11,
          "mode": 4
        }
      ]
    }
  ],
  "nodes": [
    {
      "children": [
        1
      ],
      "matrix": [
        1.0,
        0.0,
        0.0,
        0.0,
        0.0,
        2.220446049250313e-16,
        -1.0,
        0.0,
        0.0,
        1.0,
        2.220446049250313e-16,
        0.0,
        0.0,
        0.0,
        0.0,
        1.0
      ],
      "name": "Sketchfab_model"
    },
    {
      "children": [
        2
      ],
      "name": "root"
    },
    {
      "children": [
        3
      ],
      "matrix": [
        1.0,
        0.0,
        0.0,
        0.0,
        0.0,
        2.220446049250313e-16,
        1.0,
        0.0,
        0.0,
        -1.0,
        2.220446049250313e-16,
        0.0,
        0.0,
        0.0,
        0.0,
        1.0
      ],
      "name": "GLTF_SceneRootNode"
    },
    {
      "children": [
        4,
        5,
        6,
        7,
        8,
        9,
        10,
        11,
        12,
        13,
        14,
        15
      ],
      "matrix": [
        1.0,
        0.0,
        0.0,
        0.0,
        0.0,
        -1.685873969314855e-07,
        0.9999999999999858,
        0.0,
        0.0,
        -0.9999999999999858,
        -1.685873969314855e-07,
        0.0,
        -256.094970703125,
        0.0,
        157.68789672851563,
        1.0
      ],
      "name": "Everything_1"
    },
    {
      "mesh": 0,
      "name": "Object_4"
    },
    {
      "mesh": 1,
      "name": "Object_5"
    },
    {
      "mesh": 2,
      "name": "Object_6"
    },
    {
      "mesh": 3,
      "name": "Object_7"
    },
    {
      "mesh": 4,
      "name": "Object_8"
    },
    {
      "mesh": 5,
      "name": "Object_9"
    },
    {
      "mesh": 6,
      "name": "Object_10"
    },
    {
      "mesh": 7,
      "name": "Object_11"
    },
    {
      "mesh": 8,
      "name": "Object_12"
    },
    {
      "mesh": 9,
      "name": "Object_13"
    },
    {
      "mesh": 10,
      "name": "Object_14"
    },
    {
      "mesh": 11,
      "name": "Object_15"
    }
  ],
  "samplers": [
    {
      "magFilter": 9729,
      "minFilter": 9987,
      "wrapS": 10497,
      "wrapT": 10497
    }
  ],
  "scene": 0,
  "scenes": [
    {
      "name": "Sketchfab_Scene",
      "nodes": [
        0
      ]
    }
  ],
  "textures": [
    {
      "sampler": 0,
      "source": 0
    },
    {
      "sampler": 0,
      "source": 1
    },
    {
      "sampler": 0,
      "source": 2
    },
    {
      "sampler": 0,
      "source": 3
    },
    {
      "sampler": 0,
      "source": 4
    }
  ]
}
